<svg xmlns="http://www.w3.org/2000/svg" viewBox="0 0 512 512">
	<polygon style="fill:#FFCC67;" points="86.448,298.512 0,254.576 86.448,210.64" />
	<polygon style="fill:#FFCC67;" points="425.552,298.512 512,254.576 425.552,210.64" />
	<polygon style="fill:#FFCC67;" points="84.512,190.432 38.304,105.184 134.416,118.08" />
	<polygon style="fill:#FFCC67;" points="427.488,190.432 473.696,105.184 377.584,118.08" />
	<polygon style="fill:#FFCC67;" points="271.584,76.464 344.8,12.88 353.024,109.504" />
	<polygon style="fill:#FFCC67;" points="240.416,76.464 167.2,12.88 158.976,109.504" />
	<polygon style="fill:#FFCC67;" points="84.512,321.568 38.304,406.816 134.416,393.92" />
	<polygon style="fill:#FFCC67;" points="427.488,321.568 473.696,406.816 377.584,393.92" />
	<polygon style="fill:#FFCC67;" points="271.584,435.536 344.8,499.12 353.024,402.496" />
	<polygon style="fill:#FFCC67;" points="240.416,435.536 167.2,499.12 158.976,402.496" />
	<path style="fill:#FFCC67;" d="M254.496,109.504C173.584,109.504,108,175.088,108,256s65.584,146.496,146.496,146.496 S400.992,336.912,400.992,256S335.408,109.504,254.496,109.504L254.496,109.504z" />
</svg>
