<svg xmlns="http://www.w3.org/2000/svg" viewBox="0 0 512.001 512.001">
    <rect x="130.318" y="120.853" style="fill:#57B089;" width="24.172" height="263.703" />
    <path style="opacity:0.15;" d="M130.316,120.857v38.246c3.886,0.76,7.916,1.178,12.085,1.178 s8.199-0.418,12.085-1.178v-38.246H130.316z" />
    <path style="fill:#F3C74F;" d="M148.131,24.592c22.483,28.504,20.574,69.963-5.73,96.266c-26.303-26.303-28.213-67.762-5.73-96.266 C139.588,20.893,145.212,20.893,148.131,24.592z" />
    <path style="fill:#E6595A;" d="M179.343,46.881c-14.847,7.231-26.327,19.088-33.266,33.184c-1.491,3.03-5.861,3.03-7.352,0 c-6.939-14.097-18.42-25.954-33.267-33.184c-4.57-2.226-10.069,0.396-11.074,5.379c-7.123,35.326,12.972,71.273,48.016,83.088 c35.045-11.815,55.139-47.762,48.016-83.088C189.412,47.276,183.914,44.655,179.343,46.881z" />
    <path style="fill:#F0B0B7;" d="M198.968,70.934c-24.844,5.493-44.477,23.527-52.679,46.626c-1.306,3.677-6.47,3.677-7.776,0 c-8.204-23.099-27.837-41.134-52.679-46.626c-4.955-1.095-9.679,2.705-9.524,7.778c1.114,36.51,28.123,69.639,66.091,69.639 c37.97,0,64.979-33.13,66.092-69.639C208.647,73.64,203.923,69.839,198.968,70.934z" />
    <path style="fill:#F0B0B7;" d="M420.786,139.974l-0.673-21.296c-0.911-16.378-2.687-32.115-5.063-46.468l-35.07-3.513 l28.898-25.914c-6.284-24.084-14.149-40.275-21.28-42.46c-14.148-4.332-61.53,35.365-100.518,89.751l-18.917,28.817 c-12.297,20.599-22.683,42.398-29.336,64.125c-28.764,93.939-2.227,143.007,44.646,157.359 c46.873,14.353,96.334-11.445,125.097-105.384C417.588,205.548,421.004,172.153,420.786,139.974z" />
    <path style="opacity:0.1;" d="M293.256,316.641c-0.794,0-1.602-0.116-2.4-0.361 c-4.324-1.323-6.757-5.902-5.433-10.227l59.01-192.718c1.323-4.324,5.901-6.759,10.227-5.432c4.325,1.323,6.756,5.902,5.433,10.227 l-59.01,192.718C300.003,314.373,296.761,316.641,293.256,316.641z" />
    <path style="fill:#0081C6;" d="M327.251,230.024l22.909,5.806l-10.656-19.896c9.691-10.618,19.614-20.322,29.178-28.753 l25.762,17.04l-5.27-33.606c17.609-12.875,31.919-19.515,37.972-17.047c12.008,4.895,22.196,58.099,18.546,116.631l-35.466,16.861 l32.35,13.188c-3.059,20.8-8.082,41.359-15.599,59.798c-32.502,79.728-77.703,98.352-117.485,82.134 c-39.783-16.218-59.082-61.135-26.58-140.863C293.1,276.327,309.278,251.756,327.251,230.024z" />
    <path style="opacity:0.1;" d="M320.534,423.273c-1.03,0-2.077-0.195-3.089-0.608 c-4.188-1.708-6.199-6.485-4.492-10.673l66.677-163.564c1.708-4.189,6.489-6.199,10.673-4.492c4.188,1.706,6.199,6.485,4.492,10.673 l-66.677,163.565C326.824,421.349,323.763,423.273,320.534,423.273z" />
    <path style="opacity:0.1;" d="M361.286,205.647l-3.032-8.889c-6.242,5.956-12.544,12.376-18.751,19.176 l10.656,19.896l-22.909-5.806c-17.973,21.731-34.152,46.303-44.339,71.294c-32.502,79.729-13.203,124.645,26.58,140.863 c7.555,3.08,15.307,4.9,23.129,5.286c28.043-21.741,46.702-65.146,46.702-136.299C379.323,276.757,372.048,239.958,361.286,205.647z" />
    <path style="fill:#F3C74F;" d="M147.073,217.949l-19.156-9.329c-14.915-6.827-29.666-12.59-43.472-17.176l-19.452,29.391 l-9.46-37.644c-24.237-5.663-42.229-6.252-47.485-0.959c-10.426,10.499,2.615,70.92,32.566,130.762l44.77,1.881l-28.09,28.285 c12.495,20.48,26.942,39.828,43.065,55.839c69.709,69.228,125.49,68.616,160.033,33.833c34.543-34.784,34.767-90.567-34.942-159.795 C203.601,251.337,175.646,232.751,147.073,217.949z" />
    <path style="opacity:0.1;" d="M236.702,417.488c-2.086,0-4.173-0.793-5.77-2.379L87.922,273.088 c-3.209-3.186-3.227-8.371-0.04-11.58c3.188-3.209,8.372-3.227,11.58-0.039l143.01,142.023c3.209,3.186,3.227,8.371,0.04,11.58 C240.911,416.682,238.807,417.488,236.702,417.488z" />
    <path style="opacity:0.1;" d="M225.451,273.037c-18.395-18.267-41.118-34.316-64.891-47.771l-2.272,7.789 c-6.399,26.032-10.364,52.722-10.364,78.113c0,81.986,24.769,127.136,60.127,144.747c20.647-0.405,38.26-8.903,52.342-23.083 C294.935,398.048,295.16,342.264,225.451,273.037z" />
    <path style="fill:#57B089;" d="M343.708,205.647l-29.844-4.172l22.158-18.362c-6.331-17.201-13.378-33.435-20.612-47.993 l-38.62,7.72l22.398-37.142c-14.594-23.677-28.294-38.404-36.629-38.404c-16.533,0-54.172,57.916-78.035,128.782l33.761,36.978 H173.74c-6.399,26.032-10.364,52.722-10.364,78.113c0,109.782,44.407,153.527,99.185,153.527s99.185-43.746,99.185-153.527 C361.745,276.757,354.47,239.958,343.708,205.647z" />
    <path style="fill:#394049;" d="M201.28,336.3c-4.522,0-8.189-3.665-8.189-8.189v-2.876c0-4.523,3.666-8.189,8.189-8.189 c4.522,0,8.189,3.665,8.189,8.189v2.876C209.468,332.635,205.802,336.3,201.28,336.3z" />
    <path style="fill:#394049;" d="M323.848,336.3c-4.522,0-8.189-3.665-8.189-8.189v-2.876c0-4.523,3.666-8.189,8.189-8.189 c4.522,0,8.189,3.665,8.189,8.189v2.876C332.037,332.635,328.371,336.3,323.848,336.3z" />
    <path style="fill:#394049;" d="M272.855,351.074c-3.807,0-7.348-1.157-10.291-3.138c-2.944,1.981-6.484,3.138-10.291,3.138 c-10.19,0-18.48-8.29-18.48-18.48c0-4.523,3.666-8.189,8.189-8.189s8.189,3.665,8.189,8.189c0,1.158,0.943,2.103,2.103,2.103 s2.103-0.943,2.103-2.103c0-4.523,3.666-8.189,8.189-8.189c4.522,0,8.189,3.665,8.189,8.189c0,1.158,0.943,2.103,2.103,2.103 s2.103-0.943,2.103-2.103c0-4.523,3.666-8.189,8.189-8.189s8.189,3.665,8.189,8.189 C291.335,342.784,283.044,351.074,272.855,351.074z" />
    <path style="fill:#E6595A;" d="M210.049,356.948H192.51c-4.522,0-8.189-3.665-8.189-8.189s3.666-8.189,8.189-8.189h17.539 c4.522,0,8.189,3.665,8.189,8.189S214.571,356.948,210.049,356.948z" />
    <path style="fill:#E6595A;" d="M332.618,356.948h-17.539c-4.522,0-8.189-3.665-8.189-8.189s3.666-8.189,8.189-8.189h17.539 c4.522,0,8.189,3.665,8.189,8.189S337.14,356.948,332.618,356.948z" />
    <path fill="#509a79" d="M262.563,303.275c-4.522,0-8.189-3.665-8.189-8.188V172.121c0-4.523,3.666-8.189,8.189-8.189s8.189,3.665,8.189,8.189 v122.965C270.752,299.61,267.086,303.275,262.563,303.275z" />
    <path fill="#509a79" d="M262.563,435.572c-4.522,0-8.189-3.665-8.189-8.188V376.11c0-4.523,3.666-8.189,8.189-8.189s8.189,3.665,8.189,8.189 v51.273C270.752,431.906,267.086,435.572,262.563,435.572z" />
    <path style="fill:#E9D286;" d="M494.38,512.001H30.748c-7.247,0-13.122-5.875-13.122-13.122v-58.374 c0-7.247,5.875-13.122,13.122-13.122H494.38c7.247,0,13.122,5.875,13.122,13.122v58.374 C507.502,506.126,501.627,512.001,494.38,512.001z" />
    <circle style="opacity:0.1;" cx="68.216" cy="469.694" r="8.089" />
    <circle style="opacity:0.1;" cx="165.201" cy="459.082" r="8.089" />
    <circle style="opacity:0.1;" cx="274.567" cy="485.874" r="8.089" />
    <circle style="opacity:0.1;" cx="377.196" cy="461.604" r="8.089" />
    <circle style="opacity:0.1;" cx="454.528" cy="479.116" r="8.089" />
</svg>
