<svg xmlns="http://www.w3.org/2000/svg" viewBox="0 0 500.000000 500.000000">
    <g transform="translate(0.000000,500.000000) scale(0.100000,-0.100000)" fill="#00949a" stroke="none">
        <path d="M388 3373 c-17 -4 -18 -55 -18 -879 l0 -874 270 0 270 0 0 340 0 340 30 0 c24 0 31 -5 36 -27 3 -16 15 -62 26 -103 11 -41 22 -82 24 -90 23 -103 69 -289 84 -340 11 -36 22 -77 25 -92 l5 -28 300 0 299 0 -13 43 c-21 66 -47 139 -63 177 -9 19 -37 100 -64 180 -26 80 -64 190 -84 245 -62 169 -60 156 -23 185 123 95 178 215 186 408 5 126 -4 170 -50 269 -46 98 -111 153 -238 203 -111 44 -189 50 -600 49 -212 -1 -393 -3 -402 -6z m683 -388 c73 -66 61 -247 -20 -289 -17 -9 -55 -16 -86 -16 l-55 0 0 166 0 166 69 -4 c51 -3 75 -9 92 -23z" />
        <path d="M1880 2495 l0 -875 510 0 510 0 0 200 0 200 -237 2 -238 3 0 145 0 145 198 3 197 2 0 190 0 190 -197 2 -198 3 -3 133 -3 132 236 0 235 0 0 200 0 200 -505 0 -505 0 0 -875z" />
        <path d="M3425 3348 c-19 -73 -28 -106 -35 -128 -4 -14 -13 -45 -20 -70 -7 -25 -25 -85 -40 -135 -33 -105 -73 -249 -89 -320 -16 -67 -30 -118 -51 -190 -10 -33 -23 -80 -29 -105 -5 -25 -21 -92 -35 -150 -14 -58 -34 -145 -46 -195 -30 -127 -76 -342 -84 -393 l-6 -42 251 2 252 3 18 110 c10 61 21 125 24 143 l6 32 228 0 228 0 12 -72 c7 -40 20 -106 28 -145 l15 -73 287 0 288 0 -12 58 c-7 31 -19 84 -28 117 -9 33 -20 80 -26 105 -5 25 -17 77 -26 115 -19 83 -27 117 -56 250 -11 55 -29 127 -39 160 -10 33 -21 71 -23 85 -7 34 -46 188 -57 225 -5 17 -14 50 -20 75 -7 25 -20 70 -30 100 -9 30 -22 73 -28 95 -6 22 -30 103 -53 180 -23 77 -44 150 -46 163 l-5 22 -373 0 -374 0 -6 -22z m389 -598 c20 -85 42 -177 48 -205 6 -27 18 -79 28 -115 10 -36 20 -80 24 -97 l6 -33 -145 0 -145 0 0 29 c0 17 16 99 35 183 19 84 39 176 45 203 30 133 34 151 42 160 4 5 8 18 8 29 0 45 18 -7 54 -154z" />
    </g>
</svg>