<svg viewBox="0 0 456.533 456.533" xmlns="http://www.w3.org/2000/svg">
    <path style="fill:#F4C533;" d="M254.578,110.933c0-14.222,1.422-25.6-12.8-34.133c-8.533-4.267-9.956-12.8-8.533-19.911c5.689-14.222,2.844-45.511-11.378-56.889c0,0,7.111,27.022-14.222,59.733c-5.689,8.533-9.956,21.333-1.422,28.444c0,0,8.533,7.111,8.533,21.333C226.133,108.089,238.933,108.089,254.578,110.933z" />
    <path style="fill:#F4C533;" d="M200.533,344.178c0,14.222-1.422,25.6,12.8,34.133c8.533,4.267,9.956,12.8,8.533,19.911c-5.689,15.644-4.267,46.933,9.956,58.311c0,0-7.111-27.022,14.222-59.733c5.689-8.533,9.956-21.333,1.422-28.444c0,0-8.533-7.111-8.533-21.333C228.978,347.022,216.178,347.022,200.533,344.178z" />
    <path style="fill:#F4C533;" d="M163.556,91.022c-9.956,0-15.644-5.689-17.067-12.8C145.067,62.578,128,35.556,109.511,32.711c0,0,19.911,19.911,17.067,58.311c-1.422,9.956,2.844,22.756,12.8,25.6c0,0,11.378,1.422,17.067,14.222c11.378-8.533,22.756-14.222,35.556-18.489C184.889,100.978,180.622,91.022,163.556,91.022z" />
    <path style="fill:#F4C533;" d="M291.556,364.089c9.956,0,15.644,5.689,17.067,12.8c2.844,15.644,19.911,41.244,38.4,45.511c0,0-19.911-19.911-17.067-58.311c1.422-9.956-2.844-22.756-12.8-25.6c0,0-11.378-1.422-17.067-14.222c-11.378,8.533-22.756,14.222-35.556,18.489C270.222,354.133,274.489,364.089,291.556,364.089z" />
    <path style="fill:#F4C533;" d="M103.822,140.8c-8.533,4.267-15.644,2.844-21.333-2.844c-9.956-12.8-38.4-25.6-54.044-19.911c0,0,27.022,7.111,44.089,42.667c4.267,9.956,14.222,18.489,24.178,15.644c0,0,9.956-4.267,22.756,4.267c5.689-12.8,12.8-24.178,22.756-34.133C126.578,139.378,118.044,132.267,103.822,140.8z" />
    <path style="fill:#F4C533;" d="M384,294.4c-4.267-9.956-14.222-18.489-24.178-15.644c0,0-9.956,4.267-22.756-4.267c-5.689,12.8-12.8,24.178-22.756,34.133c12.8,7.111,22.756,14.222,36.978,5.689c8.533-4.267,15.644-2.844,21.333,2.844c11.378,12.8,38.4,25.6,55.467,19.911C426.667,337.067,399.644,328.533,384,294.4z" />
    <path style="fill:#F4C533;" d="M110.933,200.533h-7.111c0,0-17.067-2.844-25.6,12.8c-4.267,8.533-12.8,9.956-19.911,8.533C42.667,216.178,11.378,219.022,0,233.244c0,0,27.022-7.111,59.733,14.222c8.533,5.689,21.333,9.956,28.444,1.422c0,0,7.111-8.533,21.333-8.533C108.089,228.978,108.089,216.178,110.933,200.533z" />
    <path style="fill:#F4C533;" d="M344.178,254.578c14.222,0,25.6,1.422,34.133-12.8c4.267-8.533,12.8-9.956,19.911-8.533c15.644,5.689,46.933,4.267,58.311-9.956c0,0-27.022,7.111-59.733-14.222c-8.533-5.689-21.333-9.956-28.444-1.422c0,0-7.111,8.533-21.333,8.533C347.022,226.133,347.022,238.933,344.178,254.578z" />
    <path style="fill:#F4C533;" d="M91.022,291.556c0,9.956-5.689,15.644-12.8,17.067c-15.644,2.844-41.244,19.911-45.511,38.4c0,0,19.911-19.911,58.311-17.067c11.378,1.422,22.756-2.844,25.6-12.8c0,0,1.422-11.378,14.222-17.067c-8.533-11.378-14.222-22.756-18.489-35.556C100.978,270.222,91.022,274.489,91.022,291.556z" />
    <path style="fill:#F4C533;" d="M364.089,163.556c0-9.956,5.689-15.644,12.8-17.067c15.644-2.844,41.244-19.911,45.511-38.4c0,0-19.911,19.911-58.311,17.067c-11.378-1.422-22.756,2.844-25.6,12.8c0,0-1.422,11.378-14.222,17.067c8.533,11.378,14.222,22.756,18.489,35.556C354.133,184.889,364.089,180.622,364.089,163.556z" />
    <path style="fill:#F4C533;" d="M142.222,321.422c0,0-11.378,14.222-1.422,29.867c4.267,8.533,2.844,15.644-2.844,21.333c-12.8,11.378-25.6,38.4-19.911,55.467c0,0,7.111-27.022,42.667-44.089c9.956-4.267,18.489-14.222,15.644-24.178c0,0-4.267-9.956,4.267-22.756c-12.8-5.689-24.178-12.8-34.133-22.756L142.222,321.422z" />
    <path style="fill:#F4C533;" d="M314.311,103.822c-4.267-8.533-2.844-15.644,2.844-21.333c12.8-11.378,25.6-38.4,19.911-55.467c0,0-7.111,27.022-42.667,44.089c-9.956,4.267-18.489,14.222-15.644,24.178c0,0,4.267,9.956-4.267,22.756c12.8,5.689,24.178,12.8,34.133,22.756C315.733,126.578,322.844,118.044,314.311,103.822z" />
    <circle style="fill:#F4C533;" cx="227.556" cy="227.556" r="98.133" />
    <ellipse transform="matrix(-0.5009 -0.8655 0.8655 -0.5009 136.4641 460.1104)" style="fill:#FED93D;" cx="200.895" cy="190.709" rx="21.333" ry="36.978" />
</svg>
